<svg width="194" height="35" viewBox="0 0 194 35" fill="none" xmlns="http://www.w3.org/2000/svg">
<path fill-rule="evenodd" clip-rule="evenodd" d="M23.7071 1.69357C22.7165 2.63737 21.9066 3.45616 21.9075 3.51323C21.91 3.6878 25.5471 7.20283 25.6348 7.11529C25.6799 7.07033 26.5266 6.26765 27.5164 5.33155C28.5063 4.39545 29.316 3.60005 29.316 3.56393C29.316 3.45473 25.7738 0.0243683 25.6361 0.000147207C25.5657 -0.0121686 24.6976 0.749871 23.7071 1.69357ZM12.5196 3.30837C12.5196 3.37242 15.8623 7.96384 16.927 9.36199C17.1419 9.64433 17.3179 9.9784 17.3182 10.1044C17.3186 10.3192 17.0675 12.145 16.5945 15.366C16.4825 16.1281 16.314 17.3058 16.22 17.9831C16.126 18.6605 15.9826 19.6361 15.9014 20.1511C15.8202 20.6661 15.7537 21.1395 15.7537 21.2031C15.7537 21.3698 16.2473 21.3459 17.3464 21.126C17.8762 21.0201 18.7791 20.8542 19.3529 20.7573C19.9267 20.6603 20.8422 20.4965 21.3873 20.3932C22.4437 20.1931 23.6777 19.9746 24.9083 19.7697C25.6963 19.6384 25.7151 19.6401 28.0641 20.0506C28.5519 20.1358 29.3969 20.29 29.942 20.3932C30.4871 20.4965 31.4026 20.6603 31.9764 20.7573C32.5501 20.8542 33.4531 21.0201 33.9828 21.126C35.082 21.3459 35.5756 21.3698 35.5756 21.2031C35.5756 21.1395 35.5091 20.6661 35.4279 20.1511C35.3467 19.6361 35.2033 18.6605 35.1093 17.9831C35.0153 17.3058 34.8468 16.1281 34.7348 15.366C34.2618 12.145 34.0107 10.3192 34.0111 10.1044C34.0114 9.9784 34.1874 9.64433 34.4023 9.36199C34.6173 9.07976 35.1666 8.34081 35.6231 7.71989C38.0645 4.39904 38.8201 3.33424 38.7702 3.28518C38.7399 3.25531 36.9406 3.28826 34.7719 3.35836L30.8288 3.48593L28.2467 6.01272L25.6646 8.53951L23.0826 6.01374L20.5005 3.48798L16.9013 3.37006C12.8778 3.23817 12.5196 3.23314 12.5196 3.30837ZM6.34958 8.77197L1.27789 13.7753L1.15583 15.8279C1.08874 16.9568 0.966057 18.8504 0.883327 20.0358C0.800596 21.2212 0.709416 22.5836 0.680726 23.0634C0.610202 24.2398 0.349283 28.1489 0.156698 30.9147C0.0702121 32.1566 -0.000311939 33.4904 1.03771e-06 33.8788L0.000522579 34.585L0.339581 34.5216C0.733202 34.4479 0.922971 34.3963 4.12139 33.4918C7.96162 32.4059 9.07321 32.095 9.11619 32.095C9.13831 32.095 9.4976 31.3215 9.91449 30.3759C10.6348 28.7425 11.0624 27.7779 11.2679 27.3226C11.3189 27.2097 11.4597 26.8864 11.5807 26.6042C11.7017 26.322 11.8432 25.9987 11.8951 25.8858C12.936 23.6218 13.8441 21.4117 13.9825 20.8055C14.0791 20.3822 14.2838 19.4816 14.4372 18.8042C14.5908 18.1268 14.8121 17.157 14.9289 16.6489C15.0459 16.1409 15.2042 15.4481 15.281 15.1095C15.3577 14.7708 15.4757 14.2628 15.5431 13.9805C15.6846 13.3876 16.0018 11.955 16.2322 10.867C16.4208 9.97748 16.5822 10.3008 14.7123 7.82262C13.9882 6.86302 13.007 5.55837 12.5318 4.92328C12.0565 4.2883 11.6123 3.76868 11.5445 3.76868C11.4768 3.76868 9.13904 6.02021 6.34958 8.77197ZM38.7975 4.92328C38.3223 5.55837 37.3411 6.86302 36.617 7.82262C34.7471 10.3008 34.9085 9.97748 35.097 10.867C35.3275 11.955 35.6447 13.3876 35.7862 13.9805C35.8536 14.2628 35.9716 14.7708 36.0483 15.1095C36.1251 15.4481 36.2834 16.1409 36.4004 16.6489C36.5172 17.157 36.7385 18.1268 36.8921 18.8042C37.0455 19.4816 37.2502 20.3822 37.3468 20.8055C37.4852 21.4117 38.3933 23.6218 39.4342 25.8858C39.4861 25.9987 39.6276 26.322 39.7486 26.6042C39.8696 26.8864 40.0104 27.2097 40.0614 27.3226C40.2669 27.7779 40.6945 28.7425 41.4148 30.3759C41.8317 31.3214 42.191 32.095 42.2131 32.095C42.2561 32.095 43.3677 32.4059 47.2079 33.4918C50.4063 34.3963 50.5961 34.4479 50.9897 34.5216L51.3288 34.585L51.3293 33.8788C51.3296 33.4904 51.2591 32.1566 51.1726 30.9147C50.98 28.1489 50.7191 24.2398 50.6486 23.0634C50.6199 22.5836 50.5287 21.2212 50.446 20.0358C50.3632 18.8504 50.2405 16.9568 50.1735 15.8279L50.0514 13.7753L44.9797 8.77197C42.1903 6.02021 39.8525 3.76868 39.7848 3.76868C39.717 3.76868 39.2728 4.2883 38.7975 4.92328ZM149.812 10.645V12.9029H149.03H148.247V14.545V16.1871H149.023H149.799L149.832 19.4456C149.862 22.5048 149.878 22.7327 150.084 23.1713C150.405 23.8541 150.895 24.3513 151.567 24.6758C152.13 24.9479 152.242 24.9635 153.829 24.9903C154.928 25.0088 155.694 24.9731 156.072 24.8853L156.646 24.7522L156.674 23.1381C156.69 22.2503 156.667 21.5247 156.622 21.5255C156.578 21.5263 156.353 21.5936 156.124 21.6749C155.894 21.7563 155.371 21.8249 154.962 21.8273C153.644 21.8353 153.574 21.6628 153.57 18.4193L153.568 16.1871H155.133H156.698V14.545V12.9029H155.133H153.568V10.645V8.3871H151.69H149.812V10.645ZM71.9331 9.07832C67.908 9.26449 64.9997 11.4328 64.1615 14.8724C63.897 15.9577 63.8756 18.0109 64.1174 19.0919C64.2084 19.4981 64.4963 20.2693 64.7573 20.8055C65.1585 21.63 65.3707 21.9169 66.1308 22.6635C66.8774 23.3966 67.1979 23.6274 68.0209 24.0244C69.6835 24.8262 70.3175 24.9477 72.872 24.9546C74.8167 24.9599 75.1683 24.9344 76.0018 24.7276C77.0502 24.4675 78.8207 23.6581 79.4185 23.1655L79.8097 22.8432V19.4125V15.9818H75.7931H71.7766V17.6239V19.266H74.0196H76.2626V20.0217V20.7775L75.6489 21.0484C74.1082 21.7286 71.7761 21.6873 70.3047 20.9538C68.7622 20.1849 67.9151 18.5867 68.05 16.7003C68.1808 14.8715 69.1789 13.5506 70.8898 12.942C71.2912 12.7992 71.7121 12.7573 72.7155 12.7601C73.8454 12.7634 74.1336 12.801 74.8732 13.0409C75.3428 13.1933 75.9727 13.4807 76.2731 13.6796C76.7145 13.9718 76.8433 14.0157 76.9439 13.9083C78.9729 11.7392 79.2961 11.3426 79.1636 11.1836C78.8939 10.8602 77.4898 10.0347 76.6991 9.73475C75.426 9.25177 73.6052 9.00104 71.9331 9.07832ZM139.015 9.257C137.766 9.52651 136.632 10.1275 136.036 10.8357C134.805 12.2974 134.646 14.8608 135.693 16.3676C136.506 17.5379 137.806 18.1551 140.82 18.8009C142.305 19.1192 142.765 19.2864 143.156 19.6493C143.709 20.162 143.59 20.9636 142.899 21.3745C142.61 21.5466 142.368 21.5752 141.205 21.5744C139.673 21.5735 139.058 21.4485 137.312 20.784C136.721 20.5586 136.22 20.3904 136.201 20.4103C136.136 20.4768 134.789 23.4994 134.789 23.579C134.789 23.7 136.542 24.3622 137.462 24.5891C138.787 24.9156 139.685 25.0134 141.36 25.0134C143.787 25.0134 145.185 24.6379 146.276 23.6937C147.249 22.8512 147.662 21.6681 147.603 19.8965C147.567 18.8502 147.526 18.622 147.265 18.0618C146.599 16.6253 145.432 15.9737 142.249 15.2598C139.757 14.701 139.171 14.3918 139.171 13.6354C139.171 12.5646 140.826 12.2313 143.309 12.8018C143.777 12.9094 144.433 13.0916 144.766 13.2067C145.099 13.3218 145.408 13.416 145.452 13.416C145.497 13.416 145.891 12.7146 146.327 11.8572C147.037 10.4634 147.103 10.2852 146.95 10.1756C146.645 9.95592 144.88 9.43589 143.873 9.2687C142.668 9.06867 139.917 9.062 139.015 9.257ZM85.8606 12.6039C83.5833 12.8537 81.9175 14.4093 81.3089 16.8542C81.0649 17.8347 81.062 19.8989 81.3034 20.8055C81.8755 22.9544 83.3172 24.4397 85.2818 24.9045C86.6909 25.238 88.6808 24.9514 89.5641 24.2879L89.9814 23.9744L90.0135 24.3913L90.0456 24.8081H91.8652H93.685V18.8555V12.9029H91.8071H89.9293V13.2627V13.6226L89.4922 13.3111C88.689 12.7387 87.227 12.454 85.8606 12.6039ZM101.875 12.7839C101.196 12.9837 100.418 13.3462 100.127 13.5978C99.9567 13.7452 99.9445 13.7272 99.9445 13.3293V12.9029H98.1189H96.2931V18.8042V24.7055H98.171H100.049V20.8247V16.9439L100.336 16.6742C100.787 16.2495 101.485 15.9867 102.167 15.9841C103.253 15.9801 103.722 16.4391 103.905 17.6842C103.962 18.0744 104.01 19.8139 104.011 21.5496L104.013 24.7055H105.891H107.769V20.7633V16.8212L108.108 16.5398C108.661 16.0813 109.082 15.9572 109.939 15.9998C110.672 16.0362 110.728 16.0569 111.058 16.4108C111.249 16.6158 111.455 16.961 111.516 17.1781C111.586 17.4227 111.628 18.9278 111.628 21.1391L111.629 24.7055H113.559H115.489L115.487 20.472C115.485 15.8954 115.435 15.3493 114.928 14.365C114.553 13.6371 113.834 13.0498 113.011 12.7997C112.183 12.5482 110.438 12.5235 109.463 12.7496C108.8 12.9034 107.708 13.3922 107.263 13.7345C107.021 13.9213 107.016 13.92 106.678 13.5677C106.491 13.3724 106.061 13.086 105.723 12.9311C105.17 12.6778 104.978 12.647 103.805 12.6247C102.795 12.6053 102.359 12.6413 101.875 12.7839ZM121.578 12.7899C119.903 13.2615 118.547 14.3516 117.863 15.7766C117.335 16.8774 117.209 17.4904 117.22 18.9068C117.235 20.9625 117.772 22.343 118.993 23.4672C120.194 24.5724 121.541 25.0224 123.642 25.021C125.599 25.0197 126.877 24.7042 128.064 23.9291C128.583 23.5902 129.479 22.714 129.462 22.5614C129.454 22.491 127.295 20.6711 127.154 20.6165C127.104 20.5972 126.879 20.7456 126.653 20.9464C125.189 22.2474 122.745 22.3193 121.694 21.0923C121.413 20.7643 121.123 20.2034 121.123 19.9877C121.123 19.9166 122.529 19.8818 125.4 19.8818H129.677V18.718C129.677 15.5267 128.144 13.3915 125.394 12.754C124.452 12.5356 122.413 12.5548 121.578 12.7899ZM161.705 12.8005C159.551 13.3648 158.121 14.6574 157.467 16.6328C157.228 17.3531 157.189 17.6491 157.185 18.7529C157.181 20.2148 157.35 20.9992 157.88 21.9818C158.56 23.2417 159.686 24.1544 161.201 24.675C161.844 24.8961 162.209 24.946 163.485 24.9879C164.797 25.0309 165.125 25.008 165.885 24.8206C168.232 24.2413 169.79 22.7526 170.307 20.5948C170.511 19.7441 170.513 17.8742 170.312 17.0328C169.849 15.1006 168.439 13.6057 166.452 12.9393C165.716 12.6926 165.432 12.6556 164.053 12.6275C162.748 12.6009 162.358 12.6297 161.705 12.8005ZM178.201 12.8012C177.571 13.0241 177.292 13.1848 176.65 13.6939L176.207 14.0456V13.4742V12.9029H174.381H172.555V18.8042V24.7055H174.422H176.289L176.328 21.6009C176.368 18.4996 176.368 18.4957 176.643 17.9133C176.953 17.2587 177.55 16.7563 178.175 16.6259C178.628 16.5316 179.699 16.5361 180.096 16.6342L180.38 16.7042V14.6496V12.595L179.571 12.5987C179.043 12.6012 178.568 12.6712 178.201 12.8012ZM185.529 12.7899C183.855 13.2615 182.499 14.3516 181.815 15.7766C181.287 16.8774 181.161 17.4904 181.171 18.9068C181.186 20.9625 181.723 22.343 182.945 23.4672C184.146 24.5724 185.492 25.0224 187.593 25.021C189.551 25.0197 190.828 24.7042 192.015 23.9291C192.534 23.5902 193.43 22.714 193.414 22.5614C193.406 22.491 191.246 20.6711 191.106 20.6165C191.056 20.5972 190.83 20.7456 190.605 20.9464C189.141 22.2474 186.697 22.3193 185.645 21.0923C185.364 20.7643 185.074 20.2034 185.074 19.9877C185.074 19.9166 186.481 19.8818 189.352 19.8818H193.629V18.718C193.629 15.5267 192.096 13.3915 189.346 12.754C188.404 12.5356 186.365 12.5548 185.529 12.7899ZM124.333 15.7278C124.627 15.8138 125.014 16.0044 125.191 16.1512C125.549 16.4475 125.922 17.092 125.922 17.4146C125.922 17.6192 125.868 17.6239 123.522 17.6239C120.816 17.6239 120.932 17.6659 121.342 16.8325C121.599 16.3095 122.087 15.9137 122.711 15.7222C123.307 15.5391 123.691 15.5404 124.333 15.7278ZM188.285 15.7278C188.579 15.8138 188.965 16.0044 189.143 16.1512C189.501 16.4475 189.873 17.092 189.873 17.4146C189.873 17.6192 189.819 17.6239 187.474 17.6239C184.768 17.6239 184.884 17.6659 185.294 16.8325C185.551 16.3095 186.039 15.9137 186.662 15.7222C187.258 15.5391 187.643 15.5404 188.285 15.7278ZM88.9651 16.2561C89.2668 16.3963 89.6307 16.6618 89.7736 16.8462C90.0243 17.1696 90.0336 17.2369 90.0336 18.742C90.0336 20.4563 89.9756 20.6788 89.4064 21.1499C89.0687 21.4295 88.2057 21.7292 87.7384 21.7292C86.8325 21.7292 85.8404 21.1428 85.411 20.3534C85.0963 19.7747 85.0749 17.8738 85.3769 17.316C86.0911 15.9969 87.5072 15.5786 88.9651 16.2561ZM164.744 16.1387C165.798 16.492 166.4 17.3455 166.482 18.6046C166.546 19.5879 166.314 20.2801 165.725 20.8595C164.666 21.901 162.809 21.8587 161.839 20.771C161.323 20.1927 161.15 19.6088 161.203 18.6176C161.271 17.3432 161.772 16.5872 162.812 16.1874C163.436 15.9478 164.123 15.9304 164.744 16.1387ZM24.4127 20.14C24.0972 20.2184 23.2756 20.3819 22.587 20.5034C21.8985 20.6249 20.983 20.7879 20.5527 20.8656C20.1223 20.9431 19.6411 21.0077 19.4833 21.0087C19.2988 21.0101 19.1965 21.0657 19.1965 21.1647C19.1965 21.2587 19.2938 21.3187 19.4466 21.3187C19.5842 21.3187 22.2895 21.8422 22.2895 21.8422C22.2895 21.8422 25.1175 22.3889 25.4049 22.4173C25.7855 22.4549 26.7304 22.3127 28.8811 21.8938C30.5056 21.5775 31.9487 21.3187 32.0881 21.3187C32.2437 21.3187 32.3415 21.2594 32.3415 21.1647C32.3415 21.0677 32.2421 21.0108 32.0725 21.0108C31.7715 21.0108 30.0649 20.723 28.0157 20.3266C26.3693 20.0082 25.1895 19.9471 24.4127 20.14Z" fill="#01CFFE"/>
</svg>
