<svg width="21" height="19" viewBox="0 0 21 19" fill="none" xmlns="http://www.w3.org/2000/svg">
<path fill-rule="evenodd" clip-rule="evenodd" d="M9.08494 0.901614C6.30244 1.2862 4.08424 2.61651 2.663 4.75299C2.02875 5.70639 1.54139 7.13512 1.44751 8.31627L1.41602 8.71256L1.21629 8.8564C0.904355 9.08103 0.797845 9.36087 0.797306 9.95714C0.796767 10.5203 0.848607 10.7266 1.05125 10.9686C1.28412 11.2465 1.54036 11.3502 2.05714 11.3756L2.49585 11.3972L2.51534 9.79626C2.53066 8.5375 2.55088 8.11689 2.60995 7.82818C2.989 5.97421 3.99444 4.45897 5.55363 3.39183C6.95924 2.4298 8.64992 1.93024 10.5 1.93024C12.3115 1.93024 14.0199 2.42503 15.374 3.34194C15.8973 3.69632 16.0587 3.82993 16.5129 4.28515C17.4741 5.2487 18.1067 6.4426 18.39 7.82818C18.4491 8.11689 18.4693 8.5375 18.4846 9.79626L18.5041 11.3972L18.9381 11.375C19.4513 11.3487 19.7215 11.2398 19.9501 10.9669C20.1514 10.7267 20.2032 10.5194 20.2027 9.95714C20.2021 9.36087 20.0956 9.08103 19.7837 8.8564L19.5839 8.71256L19.5525 8.31627C19.4357 6.84702 18.8287 5.3225 17.8869 4.13332C16.666 2.59145 14.7897 1.46791 12.7215 1.04C11.6821 0.824963 10.0804 0.76401 9.08494 0.901614ZM9.76201 3.58846C7.42697 3.81777 5.31016 5.374 4.43198 7.5069L4.26195 7.91998L3.93321 7.94844C3.53395 7.98305 3.33629 8.06332 3.08958 8.29107C2.72324 8.62925 2.70792 8.69218 2.69184 9.92882C2.67796 10.9994 2.67971 11.0241 2.78591 11.2599C2.99673 11.7278 3.35754 11.9776 3.88771 12.0227L4.21757 12.0508L4.36446 12.5098C5.11798 14.8638 7.06741 16.8245 9.68146 17.8574C10.4591 18.1648 10.4608 18.1649 10.9996 17.9807C13.8047 17.0217 15.9568 14.8962 16.6981 12.3528L16.7893 12.04L17.1149 12.0182C17.642 11.983 18.0017 11.7351 18.2146 11.2601C18.3201 11.0245 18.322 10.9979 18.3081 9.92882C18.292 8.69218 18.2767 8.62925 17.9104 8.29107C17.6639 8.06346 17.4661 7.98305 17.0677 7.94844L16.7399 7.91998L16.5466 7.45489C16.256 6.75526 15.8306 6.12678 15.2443 5.53051C14.1265 4.39379 12.7428 3.73566 11.1513 3.58387C10.5953 3.53086 10.3402 3.53168 9.76201 3.58846ZM8.64907 8.66647C8.63101 9.04954 8.60711 9.15924 8.48465 9.4215C8.39939 9.60399 8.27392 9.78506 8.17505 9.86832C8.08363 9.94534 8.03638 10.0084 8.07002 10.0084C8.10371 10.0084 8.38627 9.95475 8.69794 9.88921C9.8647 9.64388 10.9203 9.23685 11.3008 8.88555C11.4285 8.76768 11.493 8.73298 11.5053 8.77567C11.7034 9.46299 12.0977 9.93042 12.7685 10.2732C13.3983 10.5949 14.1861 10.7503 15.2055 10.7537C15.742 10.7555 15.8906 10.7691 15.8906 10.8166C15.8906 10.8499 15.8517 11.0825 15.804 11.3334C15.6431 12.1816 15.3234 13.0166 14.8928 13.7132L14.7146 14.0015H13.0878H11.461L11.3062 13.8373C11.1089 13.6281 10.897 13.5368 10.6073 13.5363C10.0579 13.5355 9.678 13.9211 9.67441 14.4835C9.67225 14.8275 9.79979 15.0956 10.0557 15.2851C10.4975 15.612 11.2118 15.4557 11.4321 14.9838L11.5049 14.8277L12.7656 14.8298L14.0263 14.8318L13.8017 15.0406C12.9154 15.8644 11.8824 16.4958 10.8028 16.8735C10.5009 16.9791 10.498 16.9793 10.2638 16.8954C8.37051 16.2171 6.78449 14.9216 5.90632 13.336C5.38078 12.3871 5.06731 11.1609 5.06524 10.0459L5.06444 9.60151L5.41258 9.52546C6.96265 9.18678 7.9995 8.7965 8.46462 8.37662C8.55873 8.29167 8.6435 8.2213 8.65297 8.22025C8.66245 8.21919 8.6607 8.42 8.64907 8.66647Z" fill="#01CFFE"/>
</svg>
