<svg width="21" height="18" viewBox="0 0 21 18" fill="none" xmlns="http://www.w3.org/2000/svg">
<path fill-rule="evenodd" clip-rule="evenodd" d="M14.8261 0.707576C13.0056 1.1003 11.6161 2.47766 11.2445 4.25791L11.1909 4.51466L7.39578 4.5275L3.60068 4.54035L3.37949 4.64962C3.07759 4.79881 2.75971 5.16025 2.67195 5.4542C2.61183 5.6555 2.60179 6.24122 2.60179 9.54866V13.4082L1.7446 14.265C0.763501 15.2455 0.69251 15.3561 0.66101 15.9525C0.645167 16.2521 0.660545 16.3724 0.742176 16.5876C0.881881 16.956 1.21867 17.3114 1.58938 17.4816L1.88166 17.6158H9.84958H17.8175L18.1098 17.4816C18.4805 17.3114 18.8173 16.956 18.957 16.5876C19.0386 16.3724 19.054 16.2521 19.0381 15.9525C19.0066 15.3561 18.9357 15.2456 17.954 14.2645L17.0963 13.4072L17.1085 11.4982L17.1206 9.58928L17.4025 9.48781C17.9076 9.30596 18.677 8.83889 18.677 8.71414C18.677 8.67686 18.1573 8.03163 17.9039 7.75432C17.8516 7.69717 17.8154 7.70761 17.6445 7.82908C17.3608 8.03071 17.0313 8.18817 16.6316 8.31296C16.1191 8.47296 15.3198 8.46382 14.7976 8.29199C14.274 8.11965 13.8778 7.8757 13.4695 7.47424C12.4633 6.48476 12.2246 5.06041 12.8514 3.78539C13.6443 2.17254 15.6046 1.51747 17.2198 2.3257C18.0557 2.74393 18.673 3.51801 18.909 4.44378C19.1293 5.30778 18.9386 5.81121 18.3911 5.81075C18.006 5.81042 17.7486 5.53852 17.7473 5.13092C17.7447 4.32356 17.081 3.50942 16.2448 3.28802C15.5632 3.1075 14.7885 3.33519 14.309 3.85691C13.5688 4.66232 13.5877 5.83833 14.3531 6.59948C15.0391 7.28171 16.1009 7.37162 16.8642 6.8121L17.0724 6.6595L17.2691 6.80882C17.6607 7.10614 18.2235 7.24239 18.6987 7.15502C19.3562 7.03416 19.8818 6.64157 20.1726 6.05424C20.3138 5.76898 20.3277 5.70129 20.3429 5.22623C20.3823 3.99224 19.9297 2.89044 19.0062 1.97211C18.3195 1.28918 17.5505 0.876218 16.6403 0.701616C16.2116 0.619375 15.2198 0.622609 14.8261 0.707576ZM16.0111 4.63844C16.3387 4.79308 16.4662 5.13845 16.3124 5.45452C16.1929 5.7 16.0103 5.81093 15.7258 5.81093C15.5333 5.81093 15.4849 5.78917 15.3264 5.63157C15.1679 5.47393 15.146 5.42578 15.146 5.23441C15.146 4.95142 15.2621 4.75695 15.4945 4.65054C15.7245 4.54525 15.8093 4.54326 16.0111 4.63844ZM11.2414 6.14313C11.3796 6.84167 11.746 7.58868 12.2408 8.18082C12.971 9.05452 14.2103 9.68954 15.3411 9.76938L15.75 9.79821V11.4084V13.0186H9.84958H3.94914V9.43787V5.85713H7.56699H11.1848L11.2414 6.14313ZM16.9066 15.1622C17.6384 15.8908 17.711 15.9773 17.6831 16.0879C17.6651 16.1592 17.6033 16.2284 17.5344 16.2544C17.3739 16.3151 2.32521 16.3151 2.16474 16.2544C2.09584 16.2284 2.03409 16.1592 2.01607 16.0879C1.98819 15.9773 2.06076 15.8908 2.79251 15.1622L3.59971 14.3585H9.84958H16.0994L16.9066 15.1622Z" fill="#01CCFE"/>
</svg>
