<svg width="17" height="17" viewBox="0 0 17 17" fill="none" xmlns="http://www.w3.org/2000/svg">
<path fill-rule="evenodd" clip-rule="evenodd" d="M2.59104 0.819394C2.08584 0.912377 1.51061 1.21342 1.08916 1.60536C0.524197 2.13079 0.377248 2.48516 0.323799 3.45103C0.268813 4.44541 0.550633 6.18884 0.97364 7.47101C1.22624 8.23662 1.83421 9.53991 2.24319 10.1924C3.35818 11.9714 4.76673 13.3962 6.50841 14.5069C7.04531 14.8493 7.29207 14.9872 7.91173 15.2913C9.33344 15.9889 10.8196 16.417 12.5579 16.6297C14.1877 16.8292 14.7157 16.7348 15.4625 16.1103C15.9694 15.6865 16.345 15.2541 16.5182 14.8951C16.6584 14.6046 16.6946 14.4167 16.6974 13.9648C16.6996 13.5982 16.6942 13.5399 16.6435 13.3833C16.5711 13.1597 16.4995 13.0235 16.3216 12.7709C16.1052 12.4638 15.8956 12.2883 15.5478 12.1232C15.1997 11.9579 14.888 11.8576 14.0358 11.6365C13.0259 11.3745 12.9339 11.3572 12.5509 11.357C11.8007 11.3565 11.5156 11.4925 10.7515 12.2157L10.3561 12.5899L9.85427 12.4136C9.33675 12.2318 8.87545 12.0304 8.49194 11.8187C7.21785 11.1155 6.07328 9.99725 5.32566 8.7254C5.03289 8.22732 4.91949 7.97613 4.69486 7.32821L4.56974 6.96728L4.95315 6.58305C5.64449 5.89026 5.82042 5.56413 5.85173 4.91745C5.8682 4.57742 5.85579 4.51191 5.59478 3.56071C5.18971 2.08433 5.0734 1.81295 4.68384 1.43518C4.40173 1.16156 4.02387 0.954432 3.62571 0.855116C3.35947 0.788703 2.85279 0.771215 2.59104 0.819394Z" fill="#01CAFE"/>
</svg>
